<?xml version="1.0" encoding="UTF-8"?>
<svg id="Layer_1" xmlns="http://www.w3.org/2000/svg" version="1.1" viewBox="0 0 800 800">
  <!-- Generator: Adobe Illustrator 29.1.0, SVG Export Plug-In . SVG Version: 2.1.0 Build 142)  -->
  <defs>
    <style>
      .st0 {
        fill: #19315b;
      }

      .st1 {
        fill: #b7d0ed;
      }
    </style>
  </defs>
  <path class="st1" d="M245.1,696.8l-4.3-8.6c-3.8-7.6-4-14.9-.4-20.6,2.7-4.4,7.3-7.2,12.4-7.8,15.2-2.5,26-5.1,32.8-9.7,1-.7,1.5-1.1,1.6-1.2.7-1.6.7-7.8.7-13.2v-174.6L95.7,175.8l-.2-.3c-8.6-14.3-13.4-21.4-19.6-25.5l-6.9-4.6v-1.4c-9.7-3.6-13.8-3.6-24-3.6h-9.6l-4.3-8.6c-3.8-7.6-4-14.9-.4-20.6,3.1-4.9,8.4-7.9,14.3-7.9h276.7c10,0,17.8,8.1,17.8,18.5s-7.8,18.5-17.8,18.5-8.7,0-12,.5l.2,1v1.3c0,1.5,1.6,11,23.9,47,14.8,23.9,34.3,52.3,51.6,77.4,7.7,11.1,15,21.8,21.5,31.5,5.4-8.3,12-18.2,19.4-29.4,15.6-23.6,35.1-52.9,50.6-77.7,22.8-36.7,26.5-47.1,27.1-49.5,0-.6,0-1-.1-1.3-2.4-.8-8.4-.8-11.7-.8-10,0-17.8-8.1-17.8-18.5s1.1-7.6,3.2-10.7c3.3-4.9,8.7-7.9,14.6-7.9h261.5c10,0,17.8,8.1,17.8,18.5s-7.8,18.5-17.8,18.5-4.3.5-8.1,2.1c-.8.3-1.7.7-2.6,1.1-2.8,3.2-6.2,5.5-8.6,6.8-5,3.5-9.5,9.2-16.7,18.4-1.9,2.4-4,5.1-6.2,7.9l-191.6,284.4v174.6c0,3.1-.1,5.8-.2,8.1,0,1.6-.1,3.6-.1,4.9.2.1.5.3.9.5l1.2.6,1.1.8c7.1,5.3,12.2,6.1,24.4,8,2.4.4,4.9.7,7.6,1.2,9.1.9,15.9,8.7,15.9,18.4s-7.8,18.5-17.8,18.5H245.1Z"/>
  <path class="st0" d="M753.3,118.8c3,0,3,6.1,0,6.1-9.1,0-12.2,3-21.3,6.1,0,3-6.1,6.1-6.1,6.1-9.1,6.1-15.2,15.2-27.4,30.4l-194.6,288.8v179.4c0,15.2-3,21.3,9.1,27.4,12.2,9.1,21.3,9.1,39.5,12.2,3,0,3,6.1,0,6.1H254.7s-3-6.1,0-6.1c18.2-3,30.4-6.1,39.5-12.2,9.1-6.1,9.1-12.2,9.1-27.4v-179.4L108.8,167.4c-9.1-15.2-15.2-24.3-24.3-30.4,0-3-3-6.1-6.1-6.1-15.2-6.1-21.3-6.1-33.4-6.1,0,0-3-6.1,0-6.1h276.7c3,0,3,6.1,0,6.1-15.2,0-30.4,0-27.4,18.2,0,24.3,66.9,115.5,103.4,170.3,3,3,9.1,12.2,9.1,18.2,3-6.1,6.1-12.2,9.1-18.2,27.4-42.6,103.4-152,103.4-170.3s-15.2-18.2-27.4-18.2-3-6.1,0-6.1h261.5M753.3,87.8h-261.5c-11.1,0-21.3,5.5-27.5,14.8-3.8,5.7-5.8,12.3-5.8,19.3s2,13.6,5.8,19.3c4.1,6.1,10,10.6,16.7,13-4,7.3-10.1,17.7-19.4,32.5-15,24-32.8,50.8-48.6,74.5-2.3,3.5-4.5,6.9-6.7,10.1-2.8-4.1-5.6-8.2-8.5-12.4-16.2-23.6-34.6-50.3-48.9-73.1-9-14.3-14.6-24.3-18.1-31.1,7.3-2.2,13.8-6.8,18.2-13.4,3.8-5.7,5.8-12.3,5.8-19.3s-2-13.6-5.8-19.3c-6.2-9.2-16.4-14.8-27.5-14.8H44.9c-11.3,0-21.6,5.7-27.5,15.2-6.5,10.4-6.5,23.1-.2,35.7l8.6,17.1h19.2c6.4,0,9.6,0,13.2.9l9.2,6.1c3.6,2.4,8.1,9.1,14.9,20.6l.4.7.5.7,189.3,281v169.9c0,1.2,0,2.5,0,3.8-5.6,2.1-13.8,3.6-21.7,5-9.7,1.2-18.2,6.6-23.4,15-6.5,10.4-6.5,23.1-.2,35.7l8.6,17.1h317.1c11.1,0,21.3-5.5,27.5-14.8,3.8-5.7,5.8-12.3,5.8-19.3s-2-13.6-5.8-19.3c-5.4-8.1-14-13.3-23.5-14.5-2.7-.4-5.2-.8-7.5-1.2-8.5-1.3-11.8-1.9-14.3-3,0-1.4,0-2.9,0-4.6v-169.9l188.6-279.9c2.2-2.7,4.1-5.2,5.9-7.5,5.8-7.4,9.8-12.5,12.9-14.9,3.4-2,6.5-4.2,9.1-6.8.6-.3,1.4-.6,1.9-.8,11,0,21.3-5.5,27.5-14.8,3.8-5.7,5.8-12.3,5.8-19.3s-2-13.6-5.8-19.3c-6.2-9.2-16.4-14.8-27.5-14.8h0Z"/>
</svg>